<svg width="36" height="36" viewBox="0 0 36 36" fill="none" xmlns="http://www.w3.org/2000/svg">
<path fill-rule="evenodd" clip-rule="evenodd" d="M0 35.9999H12.8967C13.1412 26.8857 17.9712 20.9175 25.5443 19.0035C10.353 17.83 2.13707 29.5211 0 35.9999Z" fill="#4EFDEA"/>
<path fill-rule="evenodd" clip-rule="evenodd" d="M25.6472 31.1906C22.2612 26.4013 25.5534 20.9406 26.5743 20.0232C18.9187 22.7185 17.882 33.2623 18.5069 35.9538L32.681 35.9999C29.2027 34.7095 27.0386 33.0777 25.7589 31.349C25.6472 31.1906 25.6472 31.1906 25.6472 31.1906Z" fill="#006BF1"/>
<path fill-rule="evenodd" clip-rule="evenodd" d="M12.1396 0V10.3777C19.5027 12.9861 40.0903 20.4039 26.8839 31.1907L26.9956 31.3491C31.125 29.7019 33.8029 27.4795 35.0361 25.1832C40.0048 15.9291 24.7768 6.06434 12.1396 0Z" fill="#7782F1"/>
</svg>
